# xmcd
#
# Track frame offsets: 
#        150
#        21677
#        34185
#        47175
#        64685
#        83145
#        115220
#        144082
#        160387
#        177190
#        205865
#        227982
#        261162
#
# Disc length: 3844 seconds
#
# Revision: 1
# Processed by: cddbd v1.5.2PL0 Copyright (c) Steve Scherf et al.
# Submitted via: ExactAudioCopy v0.95a5
#
DISCID=b60f020d
DTITLE=Various Artist - W.C. Handy Nominees Volume I
DYEAR=2001
DGENRE=Blues
TTITLE0=Johhnie Basset and The Blues Insurgents - Big Boss Woman
TTITLE1=Sean Costello - Who's Been Cheatin' Who
TTITLE2=Anson Funderburgh and The Rockets - Change In My Pocket
TTITLE3=Gy Davis - Waiting On the Cards to Fall
TTITLE4=Taj Mahal - Honey Bee
TTITLE5=Son Seals - Jelly Jelly
TTITLE6=Calvin Jackson - Goin' Down South
TTITLE7=Shemekia Copeland - If He Moves His Lips
TTITLE8=Corey Harris and Henry Butler - Down Home Livin'
TTITLE9=WIllie King - Second Coming
TTITLE10=Eddie Clearwater - Winds of Change
TTITLE11=Beverly Watkins - Red Mama Blues
TTITLE12=Big Jack Johnson - So Long Frank Frost
EXTD=YEAR: 2001 ID3G: 0
EXTT0=
EXTT1=
EXTT2=
EXTT3=
EXTT4=
EXTT5=
EXTT6=
EXTT7=
EXTT8=
EXTT9=
EXTT10=
EXTT11=
EXTT12=
PLAYORDER=
